<?xml version="1.0" standalone="no"?>
<!DOCTYPE svg PUBLIC "-//W3C//DTD SVG 20010904//EN"
 "http://www.w3.org/TR/2001/REC-SVG-20010904/DTD/svg10.dtd">
<svg version="1.0" xmlns="http://www.w3.org/2000/svg"
 width="490.000000pt" height="490.000000pt" viewBox="0 0 490.000000 490.000000"
 preserveAspectRatio="xMidYMid meet">
<metadata>
Created by potrace 1.14, written by Peter Selinger 2001-2017
</metadata>
<g transform="translate(0.000000,490.000000) scale(0.100000,-0.100000)"
fill="#000000" stroke="none">
<path d="M120 3658 c0 -3 -9 -4 -21 -1 -21 6 -20 5 3 -33 38 -61 45 -80 54
-154 3 -25 7 -51 9 -57 3 -7 -1 -13 -7 -13 -7 0 -7 -4 -1 -12 10 -14 9 -1876
-1 -1943 -4 -22 -8 -47 -9 -56 -2 -10 -9 -24 -16 -33 -7 -9 -11 -16 -7 -16 4
0 -2 -17 -13 -38 l-20 -39 315 0 c287 0 313 1 301 16 -32 38 -55 120 -61 222
-1 25 -6 50 -9 57 -4 6 -3 13 3 17 6 4 8 11 5 16 -9 14 -12 90 -3 95 4 3 4 15
0 27 -5 12 -7 33 -5 47 4 30 4 51 0 105 -2 22 1 46 6 53 5 6 6 12 1 12 -5 0
-8 26 -7 58 3 92 3 116 0 142 -2 14 0 35 5 48 4 12 4 22 0 22 -9 0 -8 192 1
207 4 7 4 14 -1 17 -9 5 -9 47 1 63 4 7 4 14 -1 17 -9 6 -8 47 2 64 4 7 3 12
-1 12 -10 0 -9 53 2 69 3 6 2 11 -2 11 -10 0 -10 41 0 57 4 7 4 14 -1 17 -9 5
-9 47 1 63 4 7 4 14 -1 17 -9 5 -9 47 1 63 4 7 4 14 -1 17 -6 4 -8 48 -2 66 1
3 1 23 1 45 -1 22 -1 46 -1 53 0 6 0 20 0 30 0 9 0 31 1 47 4 137 3 165 -4
165 -5 0 -6 4 -2 10 3 5 8 35 11 67 7 92 23 167 43 209 11 21 17 42 14 46 -2
5 2 8 9 8 9 1 8 4 -3 13 -9 7 -40 11 -75 10 -32 -2 -94 -3 -136 -3 -43 1 -86
1 -95 1 -86 -1 -187 -1 -230 2 -29 1 -53 -1 -53 -5z"/>
<path d="M1812 3663 c-8 -3 6 -24 37 -56 108 -112 190 -249 231 -387 24 -79
39 -107 41 -74 1 10 1 22 0 26 -2 13 41 121 82 208 47 100 95 167 165 232 52
49 50 60 -5 47 -18 -4 -33 -4 -33 0 0 9 -85 5 -99 -3 -5 -4 -12 -3 -15 2 -5 8
-91 6 -113 -3 -7 -2 -13 -1 -13 3 0 6 -67 8 -80 2 -3 -1 -9 -1 -15 0 -34 8
-152 4 -147 -5 3 -5 -1 -5 -9 1 -8 6 -20 9 -27 7z"/>
<path d="M3734 3654 c-4 -10 -11 -21 -14 -24 -6 -4 -40 -65 -114 -205 -11 -22
-23 -42 -26 -45 -3 -3 -17 -30 -33 -60 -38 -77 -71 -134 -80 -141 -5 -3 -9
-13 -11 -21 -1 -9 -7 -22 -13 -29 -5 -8 -26 -43 -46 -79 l-36 -65 18 -50 c10
-28 25 -66 34 -85 8 -19 33 -82 55 -140 23 -58 46 -118 53 -135 7 -16 13 -32
14 -35 5 -15 18 -48 26 -65 4 -11 40 -99 79 -195 39 -96 74 -184 79 -195 5
-11 21 -51 36 -90 16 -38 37 -90 48 -115 11 -25 31 -74 44 -110 13 -36 30 -78
38 -95 15 -33 44 -111 50 -135 2 -8 4 -15 5 -15 1 0 3 -7 5 -15 2 -8 7 -33 12
-55 12 -52 7 -126 -9 -137 -7 -4 -9 -8 -4 -8 4 0 1 -11 -8 -25 -9 -14 -15 -25
-14 -26 19 -6 426 -2 436 4 6 5 12 6 12 1 0 -11 182 -10 198 0 7 4 12 4 12 -1
0 -4 66 -8 146 -8 141 0 145 0 124 17 -12 10 -27 15 -33 11 -5 -3 -7 -2 -4 4
3 5 -15 26 -41 46 -54 42 -91 79 -118 122 -10 17 -21 32 -24 35 -3 3 -21 40
-40 82 -19 42 -39 74 -44 71 -5 -3 -6 -1 -2 5 4 6 -6 40 -22 74 -16 35 -37 80
-46 101 -9 20 -23 52 -31 70 -8 17 -15 39 -17 47 -2 8 -5 17 -8 20 -3 3 -13
23 -22 45 -89 211 -108 258 -108 270 0 7 -3 15 -8 17 -4 2 -27 53 -52 113 -24
61 -48 112 -52 113 -5 2 -6 7 -3 12 5 8 -127 360 -175 465 -23 51 -119 307
-177 475 -35 102 -68 189 -73 194 -6 6 -12 2 -16 -10z"/>
<path d="M1276 3630 c-33 -17 -76 -42 -95 -57 -40 -29 -151 -142 -151 -154 0
-4 -6 -14 -14 -22 -13 -13 -30 -47 -79 -157 -30 -68 -45 -165 -43 -265 3 -127
15 -166 86 -284 15 -24 19 -29 76 -92 44 -47 131 -129 138 -129 5 0 33 -22 70
-55 23 -21 85 -65 91 -65 4 0 26 -13 50 -30 24 -16 46 -30 50 -30 3 0 15 -9
27 -20 12 -11 34 -26 50 -32 15 -7 28 -16 28 -20 0 -5 7 -8 15 -8 8 0 15 -4
15 -8 0 -9 50 -40 64 -40 5 0 12 -5 15 -10 9 -14 109 -82 121 -82 5 0 10 -3
10 -7 1 -5 23 -23 49 -42 27 -19 57 -47 67 -62 10 -15 22 -25 26 -23 4 3 8 0
8 -6 0 -6 8 -19 18 -30 9 -10 26 -36 37 -57 11 -21 22 -40 25 -43 3 -3 6 -14
7 -25 1 -11 5 -38 8 -60 18 -124 4 -207 -49 -292 -37 -59 -101 -133 -116 -133
-4 0 -10 -6 -13 -14 -4 -10 2 -13 21 -11 40 3 113 25 147 43 17 9 32 16 35 17
5 1 56 33 78 50 32 24 113 105 105 105 -4 0 -1 5 9 10 39 23 129 237 114 275
-3 8 -1 17 4 20 15 9 2 187 -19 252 -33 103 -102 216 -175 288 -84 82 -341
275 -367 275 -5 0 -9 5 -9 11 0 5 -4 8 -9 5 -5 -3 -14 1 -21 9 -7 9 -28 23
-46 31 -19 9 -34 20 -34 25 0 5 -5 9 -11 9 -6 0 -51 28 -101 63 -49 34 -97 67
-106 72 -9 6 -21 15 -27 21 -5 5 -38 34 -72 63 -34 29 -79 76 -100 104 -20 29
-42 55 -48 59 -5 4 -7 8 -2 8 4 0 -5 24 -19 53 -58 112 -35 314 45 411 7 8 10
20 6 26 -3 5 -3 10 2 10 4 0 23 18 41 40 18 22 32 40 30 40 -2 0 -30 -14 -62
-30z"/>
<path d="M1076 1735 c-9 -33 -20 -69 -23 -80 -8 -26 -60 -133 -81 -166 -31
-48 -57 -84 -72 -100 -8 -9 -22 -25 -30 -35 -9 -10 -35 -35 -58 -55 l-42 -36
316 0 315 -1 -45 46 c-25 25 -46 49 -46 54 0 4 -7 8 -15 8 -8 0 -14 3 -13 8 2
4 -16 34 -38 67 -59 87 -83 137 -119 250 l-32 100 -17 -60z"/>
<path d="M2834 1738 c-10 -24 -32 -65 -48 -93 -16 -27 -29 -56 -29 -62 0 -7
-4 -13 -8 -13 -4 0 -21 -24 -38 -52 -17 -29 -41 -65 -53 -81 -13 -15 -45 -56
-73 -91 -27 -36 -54 -65 -58 -65 -5 -1 -14 -7 -21 -14 -11 -11 -1 -13 58 -12
40 1 77 4 82 8 6 3 14 3 18 0 10 -10 76 -10 76 0 0 4 5 5 12 1 15 -9 178 -13
183 -4 2 3 19 5 37 3 18 -3 60 -5 92 -7 56 -2 58 -1 35 13 -13 9 -50 41 -81
72 -89 88 -132 200 -152 387 -2 24 -6 46 -9 48 -2 2 -12 -15 -23 -38z"/>
</g>
</svg>
